HIERARCHY
ROOT hip
{
	OFFSET 0.000000 0.000000 0.000000
	CHANNELS 6 Xposition Yposition Zposition Xrotation Zrotation Yrotation 
	JOINT abdomen
	{
		OFFSET 0.000000 3.422050 0.000000
		CHANNELS 3 Xrotation Zrotation Yrotation 
		JOINT chest
		{
			OFFSET 0.000000 8.486693 -0.684411
			CHANNELS 3 Xrotation Zrotation Yrotation 
			JOINT neck
			{
				OFFSET 0.000000 10.266162 -0.273764
				CHANNELS 3 Xrotation Zrotation Yrotation 
				JOINT head
				{
					OFFSET 0.000000 3.148285 0.000000
					CHANNELS 3 Xrotation Zrotation Yrotation 
					End Site
					{
						OFFSET 0.000000 3.148289 0.000000
					}
				}
			}
			JOINT lCollar
			{
				OFFSET 3.422053 6.707223 -0.821293
				CHANNELS 3 Yrotation Zrotation Xrotation 
				JOINT lShldr
				{
					OFFSET 3.285171 0.000000 0.000000
					CHANNELS 3 Zrotation Yrotation Xrotation 
					JOINT lForeArm
					{
						OFFSET 10.129278 0.000000 0.000000
						CHANNELS 3 Yrotation Zrotation Xrotation 
						JOINT lHand
						{
							OFFSET 8.486692 0.000000 0.000000
							CHANNELS 3 Zrotation Yrotation Xrotation 
							End Site
							{
								OFFSET 4.106464 0.000000 0.000000
							}
						}
					}
				}
			}
			JOINT rCollar
			{
				OFFSET -3.558935 6.707223 -0.821293
				CHANNELS 3 Yrotation Zrotation Xrotation 
				JOINT rShldr
				{
					OFFSET -3.148289 0.000000 0.000000
					CHANNELS 3 Zrotation Yrotation Xrotation 
					JOINT rForeArm
					{
						OFFSET -10.266159 0.000000 0.000000
						CHANNELS 3 Yrotation Zrotation Xrotation 
						JOINT rHand
						{
							OFFSET -8.349810 0.000000 0.000000
							CHANNELS 3 Zrotation Yrotation Xrotation 
							End Site
							{
								OFFSET -4.106464 0.000000 0.000000
							}
						}
					}
				}
			}
		}
	}
	JOINT lThigh
	{
		OFFSET 5.338403 -1.642589 1.368821
		CHANNELS 3 Xrotation Zrotation Yrotation 
		JOINT lShin
		{
			OFFSET -2.053232 -20.121670 0.000000
			CHANNELS 3 Xrotation Zrotation Yrotation 
			JOINT lFoot
			{
				OFFSET 0.000000 -19.300380 -1.231939
				CHANNELS 3 Xrotation Yrotation Zrotation 
				End Site
				{
					OFFSET 0.000000 -2.463878 4.653993
				}
			}
		}
	}
	JOINT rThigh
	{
		OFFSET -5.338403 -1.642589 1.368821
		CHANNELS 3 Xrotation Zrotation Yrotation 
		JOINT rShin
		{
			OFFSET 2.053232 -20.121670 0.000000
			CHANNELS 3 Xrotation Zrotation Yrotation 
			JOINT rFoot
			{
				OFFSET 0.000000 -19.300380 -1.231939
				CHANNELS 3 Xrotation Yrotation Zrotation 
				End Site
				{
					OFFSET 0.000000 -2.463878 4.653993
				}
			}
		}
	}
}
MOTION
Frames: 17
Frame Time: 0.076905
-8.491570 5.402042 -4.622760 -90.001877 0.000000 0.000000 39.559628 -15.842336 -9.614026 23.319601 -3.018789 -18.328768 -5.210753 -10.132146 -13.779453 -10.895144 9.552898 29.350140 -1.734087 -33.081741 11.519950 -43.419899 5.126254 -75.720406 -10.237360 -13.710262 59.764080 70.478989 -29.199326 26.460573 -39.471546 36.096828 -12.590458 29.157238 -14.959152 53.913452 80.523445 -44.494125 76.073708 -1.749274 8.791638 8.641932 -78.759781 9.576427 23.065924 73.903870 9.197440 -1.568794 55.611153 -25.067310 9.488999 -61.863396 -65.944351 -0.124564 103.187935 -7.166217 -3.044369 64.527786 33.094463 -62.800846 
-8.491570 5.402042 -4.622760 -90.001877 0.000000 0.000000 39.359715 -15.842349 -9.613979 23.769213 -3.018779 -18.328745 -5.574335 -9.372358 -14.810241 -11.336411 10.047087 29.311388 -2.048994 -32.866753 11.274246 -43.419899 5.126254 -75.720406 -10.237360 -13.710262 59.764080 70.478989 -29.199326 26.460573 -39.240200 36.158371 -12.763082 29.157238 -14.959152 53.913452 80.523445 -44.494125 76.073708 -1.749274 8.791638 8.641932 -78.759781 9.576427 23.065924 73.903870 9.197440 -1.568794 55.611153 -25.067310 9.488999 -61.854965 -65.721046 0.039468 103.187935 -7.166217 -3.044369 64.392555 33.216866 -62.497974 
-8.491570 5.402042 -4.622760 -90.001877 0.000000 0.000000 39.159786 -15.842360 -9.613930 24.218927 -3.018771 -18.328716 -5.950033 -8.620896 -15.841326 -11.778474 10.540704 29.268726 -2.362087 -32.650593 11.030502 -43.419899 5.126254 -75.720406 -10.237360 -13.710262 59.764080 70.478989 -29.199326 26.460573 -39.008411 36.219349 -12.936158 29.157238 -14.959152 53.913452 80.523445 -44.494125 76.073708 -1.749274 8.791638 8.641932 -78.759781 9.576427 23.065924 73.903870 9.197440 -1.568794 55.611153 -25.067310 9.488999 -61.845074 -65.497734 0.202193 103.187935 -7.166217 -3.044369 64.256348 33.338680 -62.194290 
-8.491570 5.402042 -4.622760 -90.001877 0.000000 0.000000 38.959862 -15.842375 -9.613886 24.668743 -3.018762 -18.328691 -6.337577 -7.878179 -16.872709 -12.221375 11.033689 29.222153 -2.673374 -32.433304 10.788722 -43.419899 5.126254 -75.720406 -10.237360 -13.710262 59.764080 70.478989 -29.199326 26.460573 -38.776226 36.279770 -13.109679 29.157238 -14.959152 53.913452 80.523445 -44.494125 76.073708 -1.749274 8.791638 8.641932 -78.759781 9.576427 23.065924 73.903870 9.197440 -1.568794 55.611153 -25.067310 9.488999 -61.833725 -65.274384 0.363647 103.187935 -7.166217 -3.044369 64.119179 33.459904 -61.889835 
-8.491570 5.402042 -4.622760 -90.001877 0.000000 0.000000 38.759922 -15.842386 -9.613838 25.118641 -3.018754 -18.328667 -6.736696 -7.144611 -17.904371 -12.665144 11.525976 29.171633 -2.982862 -32.214893 10.548898 -43.419899 5.126254 -75.720406 -10.237360 -13.710262 59.764080 70.478989 -29.199326 26.460573 -38.543617 36.339619 -13.283650 29.157238 -14.959152 53.913452 80.523445 -44.494125 76.073708 -1.749274 8.791638 8.641932 -78.759781 9.576427 23.065924 73.903870 9.197440 -1.568794 55.611153 -25.067310 9.488999 -61.821007 -65.051079 0.523861 103.187935 -7.166217 -3.044369 63.981033 33.580521 -61.584572 
-8.491570 5.402042 -4.622760 -90.001877 0.000000 0.000000 38.559982 -15.842401 -9.613791 25.568615 -3.018746 -18.328640 -7.147113 -6.420598 -18.936310 -13.109835 12.017512 29.117186 -3.290554 -31.995363 10.311017 -43.419899 5.126254 -75.720406 -10.237360 -13.710262 59.764080 70.478989 -29.199326 26.460573 -38.310608 36.398907 -13.458051 29.157238 -14.959152 53.913452 80.523445 -44.494125 76.073708 -1.749274 8.791638 8.641932 -78.759781 9.576427 23.065924 73.903870 9.197440 -1.568794 55.611153 -25.067310 9.488999 -61.806934 -64.827766 0.682880 103.187935 -7.166217 -3.044369 63.841915 33.700531 -61.278519 
-8.491570 5.402042 -4.622760 -90.001877 0.000000 0.000000 38.360035 -15.842414 -9.613746 26.018642 -3.018739 -18.328619 -7.568537 -5.706507 -19.968468 -13.555473 12.508223 29.058756 -3.596460 -31.774748 10.075077 -43.419899 5.126254 -75.720406 -10.237360 -13.710262 59.764080 70.478989 -29.199326 26.460573 -38.077187 36.457626 -13.632895 29.157238 -14.959152 53.913452 80.523445 -44.494125 76.073708 -1.749274 8.791638 8.641932 -78.759781 9.576427 23.065924 73.903870 9.197440 -1.568794 55.611153 -25.067310 9.488999 -61.791527 -64.604454 0.840728 103.187935 -7.166217 -3.044369 63.701836 33.819923 -60.971672 
-8.491570 5.402042 -4.622760 -90.001877 0.000000 0.000000 38.160080 -15.842426 -9.613698 26.468710 -3.018732 -18.328592 -8.000681 -5.002717 -21.000814 -14.002110 12.998058 28.996370 -3.900588 -31.553062 9.841073 -43.419899 5.126254 -75.720406 -10.237360 -13.710262 59.764080 70.478989 -29.199326 26.460573 -37.843365 36.515762 -13.808165 29.157238 -14.959152 53.913452 80.523445 -44.494125 76.073708 -1.749274 8.791638 8.641932 -78.759781 9.576427 23.065924 73.903870 9.197440 -1.568794 55.611153 -25.067310 9.488999 -61.774799 -64.381134 0.997431 103.187935 -7.166217 -3.044369 63.560757 33.938690 -60.664021 
-8.491570 5.402042 -4.622760 -90.001877 0.000000 0.000000 37.960129 -15.842435 -9.613650 26.918798 -3.018723 -18.328566 -7.766673 -5.380380 -20.444914 -13.761488 12.734415 29.030462 -4.202943 -31.330303 9.608992 -43.419899 5.126254 -75.720406 -10.237360 -13.710262 59.764080 70.478989 -29.199326 26.460573 -37.609142 36.573330 -13.983864 29.157238 -14.959152 53.913452 80.523445 -44.494125 76.073708 -1.749274 8.791638 8.641932 -78.759781 9.576427 23.065924 73.903870 9.197440 -1.568794 55.611153 -25.067310 9.488999 -61.756817 -64.157845 1.153018 103.187935 -7.166217 -3.044369 63.418743 34.056843 -60.355602 
-8.491570 5.402042 -4.622760 -90.001877 0.000000 0.000000 37.760170 -15.842448 -9.613604 27.368904 -3.018716 -18.328535 -7.535736 -5.761077 -19.889067 -13.521160 12.470508 29.063395 -4.503536 -31.106512 9.378833 -43.419899 5.126254 -75.720406 -10.237360 -13.710262 59.764080 70.478989 -29.199326 26.460573 -37.374535 36.630325 -14.159987 29.157238 -14.959152 53.913452 80.523445 -44.494125 76.073708 -1.749274 8.791638 8.641932 -78.759781 9.576427 23.065924 73.903870 9.197440 -1.568794 55.611156 -25.067310 9.489000 -61.737602 -63.934574 1.307537 103.187935 -7.166217 -3.044369 63.275761 34.174355 -60.046398 
-8.491570 5.402042 -4.622760 -90.001877 0.000000 0.000000 37.560219 -15.842463 -9.613558 27.819017 -3.018710 -18.328510 -7.307914 -6.144753 -19.333271 -13.281120 12.206348 29.095186 -4.802372 -30.881687 9.150583 -43.419899 5.126254 -75.720406 -10.237360 -13.710262 59.764080 70.478989 -29.199326 26.460573 -37.139526 36.686733 -14.336526 29.157238 -14.959152 53.913452 80.523445 -44.494125 76.073708 -1.749274 8.791638 8.641932 -78.759781 9.576427 23.065924 73.903870 9.197440 -1.568794 55.611153 -25.067310 9.488999 -61.717152 -63.711323 1.460993 103.187935 -7.166217 -3.044369 63.131794 34.291222 -59.736397 
-8.491570 5.402042 -4.622760 -90.001877 0.000000 0.000000 37.360264 -15.842472 -9.613510 28.269114 -3.018703 -18.328489 -7.083248 -6.531347 -18.777534 -13.041360 11.941945 29.125822 -5.099460 -30.655859 8.924241 -43.419899 5.126254 -75.720406 -10.237360 -13.710262 59.764080 70.478989 -29.199326 26.460573 -36.904133 36.742554 -14.513481 29.157238 -14.959152 53.913452 80.523445 -44.494125 76.073708 -1.749274 8.791638 8.641932 -78.759781 9.576427 23.065924 73.903870 9.197440 -1.568794 55.611156 -25.067310 9.489000 -61.695568 -63.488117 1.613431 103.187935 -7.166217 -3.044369 62.986870 34.407440 -59.425610 
-8.491570 5.402042 -4.622760 -90.001877 0.000000 0.000000 37.160309 -15.842483 -9.613463 28.719181 -3.018696 -18.328461 -6.861790 -6.920804 -18.221867 -12.801874 11.677303 29.155302 -5.394807 -30.429029 8.699792 -43.419899 5.126254 -75.720406 -10.237360 -13.710262 59.764080 70.478989 -29.199326 26.460573 -36.668354 36.797794 -14.690849 29.157238 -14.959152 53.913452 80.523445 -44.494125 76.073708 -1.749274 8.791638 8.641932 -78.759781 9.576427 23.065924 73.903870 9.197440 -1.568794 55.611149 -25.067310 9.488998 -61.672798 -63.264908 1.764885 103.187935 -7.166217 -3.044369 62.840992 34.523006 -59.114052 
-8.491570 5.402042 -4.622760 -90.001877 0.000000 0.000000 36.960365 -15.842496 -9.613417 29.169209 -3.018690 -18.328438 -6.643579 -7.313062 -17.666269 -12.562657 11.412437 29.183647 -5.688425 -30.201229 8.477234 -43.419899 5.126254 -75.720406 -10.237360 -13.710262 59.764080 70.478989 -29.199326 26.460573 -36.432209 36.852455 -14.868627 29.157238 -14.959152 53.913452 80.523445 -44.494125 76.073708 -1.749274 8.791638 8.641932 -78.759781 9.576427 23.065924 73.903870 9.197440 -1.568794 55.611153 -25.067310 9.488999 -61.648941 -63.041779 1.915362 103.187935 -7.166217 -3.044369 62.694164 34.637917 -58.801720 
-8.491570 5.402042 -4.622760 -90.001877 0.000000 0.000000 36.760422 -15.842506 -9.613368 29.619177 -3.018684 -18.328409 -6.428663 -7.708066 -17.110758 -12.323702 11.147359 29.210844 -5.980321 -29.972466 8.256554 -43.419899 5.126254 -75.720406 -10.237360 -13.710262 59.764080 70.478989 -29.199326 26.460573 -36.195690 36.906528 -15.046801 29.157238 -14.959152 53.913452 80.523445 -44.494125 76.073708 -1.749274 8.791638 8.641932 -78.759781 9.576427 23.065924 73.903870 9.197440 -1.568794 55.611149 -25.067310 9.488998 -61.623920 -62.818645 2.064877 103.187935 -7.166217 -3.044369 62.546352 34.752144 -58.488590 
-8.491570 5.402042 -4.622760 -90.001877 0.000000 0.000000 36.560490 -15.842520 -9.613323 30.069078 -3.018678 -18.328388 -6.217086 -8.105750 -16.555326 -12.085003 10.882071 29.236895 -6.270503 -29.742748 8.037744 -43.419899 5.126254 -75.720406 -10.237360 -13.710262 59.764080 70.478989 -29.199326 26.460573 -35.958790 36.960003 -15.225378 29.157238 -14.959152 53.913452 80.523445 -44.494125 76.073708 -1.749274 8.791638 8.641932 -78.759781 9.576427 23.065924 73.903870 9.197440 -1.568794 55.611153 -25.067310 9.488999 -61.597862 -62.595570 2.213490 103.187935 -7.166217 -3.044369 62.397602 34.865704 -58.174709 
-8.491570 5.402042 -4.622760 -90.001877 0.000000 0.000000 36.360558 -15.842533 -9.613276 30.518887 -3.018671 -18.328354 -6.008889 -8.506052 -15.999980 -11.846556 10.616590 29.261818 -6.558979 -29.512110 7.820800 -43.419899 5.126254 -75.720406 -10.237360 -13.710262 59.764080 70.478989 -29.199326 26.460573 -35.721531 37.012886 -15.404349 29.157238 -14.959152 53.913452 80.523445 -44.494125 76.073708 -1.749274 8.791638 8.641932 -78.759781 9.576427 23.065924 73.903870 9.197440 -1.568794 55.611156 -25.067310 9.489000 -61.570766 -62.372562 2.361192 103.187935 -7.166217 -3.044369 62.247898 34.978596 -57.860058 
